<?xml version="1.0" encoding="UTF-8"?>
<svg id="Capa_2" data-name="Capa 2" xmlns="http://www.w3.org/2000/svg" xmlns:xlink="http://www.w3.org/1999/xlink" viewBox="0 0 168.68 199.52">
  <defs>
    <style>
      .cls-1 {
        fill: url(#Degradado_sin_nombre_11);
      }

      .cls-2 {
        fill: url(#Degradado_sin_nombre_17);
      }

      .cls-3 {
        fill: url(#Degradado_sin_nombre_11-2);
      }
    </style>
    <linearGradient id="Degradado_sin_nombre_17" data-name="Degradado sin nombre 17" x1="47.35" y1="29.08" x2="139.05" y2="173.88" gradientUnits="userSpaceOnUse">
      <stop offset="0" stop-color="#007848"/>
      <stop offset="1" stop-color="#e99a3c"/>
    </linearGradient>
    <linearGradient id="Degradado_sin_nombre_11" data-name="Degradado sin nombre 11" x1="148.19" y1="182.71" x2="79.01" y2="57.21" gradientUnits="userSpaceOnUse">
      <stop offset="0" stop-color="#d1d9d8"/>
      <stop offset="1" stop-color="#f6fffe"/>
    </linearGradient>
    <linearGradient id="Degradado_sin_nombre_11-2" data-name="Degradado sin nombre 11" x1="134.29" y1="190.37" x2="65.11" y2="64.88" xlink:href="#Degradado_sin_nombre_11"/>
  </defs>
  <g id="Veganimo">
    <g>
      <path class="cls-2" d="M107.32,79.12c3.63-2.41,6.63-5.58,8.17-8.8,3.16-6.63,4.26-14.4,6.72-21.31,1.27-3.55,2.73-7.49,6.64-10.77,3.73-3.12,8.05-4.97,14.22-4.34l.2-.32c-1.49-1.48-3.61-2.59-5.92-3.27-7.27-2.1-15.21,.07-20.38,4.16-5.02,3.82-8.14,9.1-10.29,14.42-1.85,4.51-2.9,9.5-4.44,13.83-1.33,3.83-4.18,8.64-7.97,10.94-1.45,.87-3.61,1.33-5.38,1.45-.73,.05-4.65-.15-6.1-.91-6.56-15.18-13.49-30.68-13.49-30.68-1.97-4.2-2.22-7.48-.74-9.84,1.47-2.36,4.46-3.53,8.98-3.53h.61v-1.29H28.23v1.29h.45c5.3,0,10.07,4.67,14.29,14.02l36.74,79.71h-14.23c1.38-5.92-.2-12.4-4.8-17.06-4.77-4.83-11.54-6.45-17.67-4.86-1.68,6.1-.15,12.91,4.62,17.74,1.86,1.88,4.02,3.27,6.33,4.18H30.6c-3.03,0-5.45,2.6-5.16,5.62,1.56,16.65,10.05,31.28,22.54,41.01,4.3,3.34,9.6,5.13,15.05,5.13h.25c.31,0,.55,.25,.55,.55v2.33c0,1.71,1.39,3.1,3.1,3.1h34.82c1.71,0,3.1-1.39,3.1-3.1v-2.33c0-.31,.25-.55,.55-.55h0c5.44,0,10.75-1.79,15.04-5.13,12.5-9.73,20.98-24.36,22.55-41.01,.28-3.02-2.13-5.62-5.17-5.62h-14.16c3.13-1.29,6.1-3.11,8.76-5.5,7.34-6.56,10.77-15.84,10.14-24.94-1.31-1.44-11.59,5.68-14.89,8.63,3.3-2.95,11.52-12.37,10.25-13.82-8.97-1.66-18.59,.73-25.92,7.28-8.26,7.39-11.56,18.22-9.71,28.35h-15.89l20.9-44.76Zm-21.03,1.14c4.28,3.73,10.1,3.71,15.51,1.7l-8.39,17.96c-1.54-4.34-5.03-12.71-8.89-21.71,.49,.73,1.07,1.44,1.77,2.05Z"/>
      <g>
        <path class="cls-1" d="M86.29,80.26c-.7-.61-1.28-1.32-1.77-2.05,3.86,9,7.35,17.37,8.89,21.71l8.39-17.96c-5.41,2.01-11.23,2.03-15.51-1.7Z"/>
        <path class="cls-3" d="M136.3,0H32.38C14.5,0,0,14.49,0,32.38V167.13c0,17.89,14.5,32.39,32.38,32.39h103.92c17.88,0,32.38-14.5,32.38-32.39V32.38c0-17.89-14.5-32.38-32.38-32.38Zm6.77,33.9c-6.17-.63-10.49,1.22-14.22,4.34-3.91,3.28-5.37,7.22-6.64,10.77-2.46,6.91-3.56,14.68-6.72,21.31-1.54,3.22-4.54,6.39-8.17,8.8l-20.9,44.76h15.89c-1.85-10.13,1.45-20.96,9.71-28.35,7.33-6.55,16.95-8.94,25.92-7.28,1.27,1.45-6.95,10.87-10.25,13.82,3.3-2.95,13.58-10.07,14.89-8.63,.63,9.1-2.8,18.38-10.14,24.94-2.66,2.39-5.63,4.21-8.76,5.5h14.16c3.04,0,5.45,2.6,5.17,5.62-1.57,16.65-10.06,31.28-22.55,41.01-4.3,3.34-9.6,5.13-15.04,5.13-.31,0-.55,.25-.55,.55v2.33c0,1.71-1.39,3.1-3.1,3.1h-34.82c-1.71,0-3.1-1.39-3.1-3.1v-2.33c0-.31-.25-.55-.55-.55h-.25c-5.44,0-10.75-1.79-15.05-5.13-12.49-9.73-20.98-24.36-22.54-41.01-.29-3.02,2.13-5.62,5.16-5.62h23.36c-2.31-.91-4.47-2.3-6.33-4.18-4.77-4.83-6.3-11.64-4.62-17.74,6.13-1.59,12.9,.03,17.67,4.86,4.6,4.66,6.18,11.14,4.8,17.06h14.23L42.97,44.17c-4.22-9.35-8.99-14.02-14.29-14.02h-.45v-1.29h49.92v1.29h-.61c-4.52,0-7.51,1.17-8.98,3.53-1.48,2.36-1.23,5.64,.74,9.84,0,0,6.93,15.5,13.49,30.68,1.45,.76,5.37,.96,6.1,.91,1.77-.12,3.93-.58,5.38-1.45,3.79-2.3,6.64-7.11,7.97-10.94,1.54-4.33,2.59-9.32,4.44-13.83,2.15-5.32,5.27-10.6,10.29-14.42,5.17-4.09,13.11-6.26,20.38-4.16,2.31,.68,4.43,1.79,5.92,3.27l-.2,.32Z"/>
      </g>
    </g>
  </g>
</svg>