<?xml version="1.0" encoding="UTF-8"?>
<svg id="Capa_2" data-name="Capa 2" xmlns="http://www.w3.org/2000/svg" viewBox="0 0 120.55 134.01">
  <defs>
    <style>
      .cls-1 {
        fill: #f6fffe;
      }
    </style>
  </defs>
  <g id="Veganimo">
    <path class="cls-1" d="M105.37,13.33c3.77-2.69,12.35-10.39,11.32-11.91-8.49-2.72-18.12-1.59-26.04,3.86-8.32,5.72-12.85,14.88-12.98,24.24h-3.59c1.35-5.15,.4-10.85-3.08-15.42-4.03-5.28-10.4-7.7-16.54-6.91-2.39,5.71-1.75,12.5,2.28,17.78,1.44,1.89,3.19,3.42,5.12,4.55H21.67C9.75,29.52,0,39.27,0,51.19v61.14c0,11.92,9.75,21.68,21.67,21.68h61.14c11.92,0,21.68-9.76,21.68-21.68V51.19c0-6.63-3.02-12.59-7.75-16.57,3.79-.78,7.5-2.32,10.89-4.65,7.92-5.45,12.4-14.04,12.92-22.94-1.06-1.51-11.32,3.76-15.18,6.3Zm-13.3,45.86c-3.94-.41-6.7,.78-9.08,2.77-2.5,2.1-3.44,4.62-4.24,6.88-1.57,4.42-2.28,9.38-4.3,13.61-.98,2.06-2.9,4.08-5.21,5.62l-14.36,30.76h-2.28l-24.47-53.08c-2.69-5.97-5.74-8.96-9.12-8.96h-.29v-.82h31.88v.82h-.38c-2.89,0-4.8,.75-5.74,2.26-.94,1.51-.79,3.6,.47,6.29,0,0,4.43,9.9,8.62,19.59,.93,.48,3.43,.61,3.89,.58,1.13-.07,2.51-.37,3.44-.93,2.42-1.46,4.24-4.54,5.09-6.98,.98-2.77,1.66-5.96,2.84-8.84,1.37-3.4,3.36-6.77,6.57-9.21,3.3-2.61,8.37-3.99,13.02-2.65,1.47,.43,2.83,1.14,3.78,2.09l-.13,.2Z"/>
  </g>
</svg>