<?xml version="1.0" encoding="UTF-8"?>
<svg id="Capa_2" data-name="Capa 2" xmlns="http://www.w3.org/2000/svg" viewBox="0 0 457.09 414.34">
  <defs>
    <style>
      .cls-1 {
        fill: #fff;
      }
    </style>
  </defs>
  <g id="Capa_1-2" data-name="Capa 1">
    <g>
      <path class="cls-1" d="m378.66,130.57c-3.44-14.84-12.16-25.58-26.02-32.01-6.55-3.04-13.53-4.04-20.72-4.03-16.23.02-32.47.02-48.7.02,7.77-3.35,15.14-7.99,21.8-13.95,19.28-17.25,28.32-41.68,26.66-65.6-3.44-3.8-30.48,14.93-39.15,22.7,8.67-7.76,30.3-32.55,26.95-36.35-23.58-4.37-48.9,1.91-68.2,19.17-21.57,19.27-30.32,47.54-25.67,74.04-1.75,0-3.5,0-5.25,0h0c-1.88,0-3.76,0-5.64,0,3.22-15.28-1.06-31.83-12.87-43.81-12.54-12.7-30.37-16.98-46.48-12.79-4.42,16.05-.39,33.96,12.13,46.67,4.22,4.27,9.05,7.57,14.2,9.94-24.34,0-48.69,0-73.03,0-4.82,0-9.6.33-14.3,1.66-10.43,2.95-18.81,8.79-25.14,17.53-6.09,8.4-8.56,17.96-8.56,28.22,0,50.22-.02,100.43.02,150.65,0,5.8.88,11.51,3.05,16.93,4.53,11.37,12.28,19.8,23.34,25.09,4.63,2.22,9.49,3.83,14.67,3.98,7.02.21,14.04.25,21.06.28,1.2,0,1.44.35,1.45,1.47.05,12.34.14,24.67.25,37.01.01,1.28.05,2.6.36,3.83,1.57,6.13,8.3,9.45,14.15,5.96,1.67-1,3.2-2.22,4.75-3.41,18.67-14.35,37.34-28.69,55.95-43.11,1.61-1.25,3.15-1.76,5.18-1.75,42.17.06,84.35.06,126.52.03,3.36,0,6.78.04,10.07-.53,11.53-2.02,21.06-7.61,28.39-16.78,7.01-8.76,9.94-18.9,9.94-30,0-49.76.02-99.52-.05-149.28,0-3.92-.22-7.95-1.1-11.75Zm-18.26,160.58c0,6.05-.96,11.82-4.49,16.92-3.85,5.55-8.98,9.35-15.6,10.76-2.93.63-6.02.68-9.04.68-43.21.04-86.43.04-129.64.01-4.02,0-7.51,1.12-10.72,3.61-15.05,11.7-30.17,23.3-45.27,34.93-.54.42-1.12.79-1.68,1.18-.16-.06-.31-.12-.47-.17,0-1.86,0-3.72,0-5.58-.01-7.56-.02-15.12-.04-22.68,0-.58-.03-1.16-.07-1.74-.48-6.7-5.6-9.5-10.98-9.53-7.81-.03-15.62.09-23.43-.05-3.42-.06-6.96-.16-10.23-1.05-10.09-2.74-17.44-11.85-18.37-22.2-.16-1.82-.27-3.65-.27-5.47-.02-49.59-.02-99.18-.02-148.78,0-5.26.77-10.35,3.53-14.95,3.93-6.56,9.57-10.84,17.08-12.46,1.73-.37,3.55-.45,5.33-.45,19.53,0,39.06.04,58.58.04,56.8,0,113.6.06,170.4-.05,10.78-.02,21.27,7.91,24.22,18.27.93,3.27,1.21,6.6,1.21,9.97,0,49.59-.02,99.18,0,148.78Z"/>
      <circle class="cls-1" cx="137.05" cy="222.28" r="16.6"/>
      <circle class="cls-1" cx="220.24" cy="222.28" r="16.6" transform="translate(-20.83 22.78) rotate(-5.65)"/>
      <circle class="cls-1" cx="303.43" cy="222.28" r="16.6" transform="translate(35.42 486.18) rotate(-80.78)"/>
      <path class="cls-1" d="m405.35,8.74c-9.02,35.4-16.34,42.72-51.74,51.74,35.4,9.02,42.72,16.34,51.74,51.74,9.02-35.4,16.34-42.72,51.74-51.74-35.4-9.02-42.72-16.34-51.74-51.74Z"/>
      <path class="cls-1" d="m36.59,341.16c-6.38,25.03-11.55,30.21-36.59,36.59,25.03,6.38,30.21,11.55,36.59,36.59,6.38-25.03,11.55-30.21,36.59-36.59-25.03-6.38-30.21-11.55-36.59-36.59Z"/>
    </g>
  </g>
</svg>