<?xml version="1.0" encoding="UTF-8"?>
<svg id="Capa_2" data-name="Capa 2" xmlns="http://www.w3.org/2000/svg" viewBox="0 0 635.12 157.92">
  <defs>
    <style>
      .cls-1 {
        fill: #1a1c1c;
      }
    </style>
  </defs>
  <g id="Veganimo">
    <g>
      <path class="cls-1" d="M135.85,119.66c-5.97,0-11.27-1.47-15.9-4.41-4.63-2.94-8.24-7.03-10.84-12.27-2.6-5.23-3.89-11.23-3.89-17.98s1.43-12.98,4.28-18.17c2.86-5.19,6.77-9.24,11.75-12.14,4.97-2.9,10.62-4.35,16.94-4.35,5.28,0,9.97,1.04,14.08,3.12,4.11,2.08,7.4,5,9.86,8.76,2.47,3.76,3.87,8.11,4.22,13.04,.07,1.05-.77,1.95-1.82,1.95h-30.89c-2.49,0-5.34-.44-7.69,.4-.44,.16-.88,.35-1.23,.67-.44,.39-.71,.93-.92,1.47-1.38,3.47-.35,7.12,.62,10.58s2.44,6.68,4.55,9.53c4.07,5.5,9.52,8.24,16.35,8.24,4.15,0,8.11-1.02,11.88-3.05,3.76-2.03,6.81-4.78,9.15-8.24l1.17,.39c-1.47,4.41-3.76,8.31-6.88,11.68-3.11,3.37-6.79,6.02-11.03,7.92-4.24,1.9-8.83,2.86-13.76,2.86Zm-12.85-44.39s20.12,0,20.15,0c6.35,0,6.27-6.3,4.96-10.93-1.58-5.58-4.63-12.04-11.35-12.04-3.81,0-6.97,2.08-9.47,6.23-2.51,4.15-3.94,9.73-4.28,16.74Z"/>
      <path class="cls-1" d="M599.82,119.79c-7.1,0-13.3-1.43-18.63-4.28-5.32-2.86-9.45-6.88-12.4-12.07-2.94-5.19-4.41-11.33-4.41-18.43s1.47-13.24,4.41-18.43c2.94-5.19,7.07-9.22,12.4-12.07,5.32-2.86,11.53-4.28,18.63-4.28s13.28,1.43,18.56,4.28c5.28,2.86,9.39,6.88,12.33,12.07,2.94,5.19,4.41,11.34,4.41,18.43s-1.47,13.24-4.41,18.43c-2.94,5.19-7.05,9.22-12.33,12.07-5.28,2.86-11.47,4.28-18.56,4.28Zm-.13-1.69c3.03,0,5.62-1.51,7.79-4.54,2.16-3.03,3.85-7.07,5.06-12.14,1.21-5.06,1.82-10.58,1.82-16.55,0-6.49-.63-12.22-1.88-17.2-1.26-4.97-2.99-8.87-5.19-11.68-2.21-2.81-4.69-4.22-7.46-4.22-2.94,0-5.52,1.51-7.72,4.54-2.21,3.03-3.92,7.05-5.13,12.07-1.21,5.02-1.82,10.51-1.82,16.48,0,6.58,.65,12.37,1.95,17.39,1.3,5.02,3.05,8.91,5.26,11.68,2.21,2.77,4.65,4.15,7.33,4.15Z"/>
      <g>
        <path class="cls-1" d="M351.82,113.97c-1.9-1.9-2.86-4.41-2.86-7.53v-9.97c0-2.68-2.17-4.84-4.84-4.84h-9c-2.68,0-4.84,2.17-4.84,4.84v9.97c0,3.12-.95,5.63-2.86,7.53-1.9,1.9-4.41,2.86-7.53,2.86h-.13v1.3h39.72v-1.3h-.13c-3.12,0-5.62-.95-7.53-2.86Z"/>
        <path class="cls-1" d="M403.09,116.82c-3.12,0-5.62-.95-7.53-2.86-1.9-1.9-2.86-4.41-2.86-7.53v-35.3c0-6.23-1.75-11.25-5.26-15.06-3.5-3.81-8.16-5.71-13.95-5.71-5.11,0-9.95,1.38-14.54,4.15-4.59,2.78-8,6.4-10.25,10.9,0-.15,0-.3-.01-.45-.39-9.43-13.16-15.39-28.93-13.4v1.91c4.33,0,7.16,.91,8.5,2.73,1.34,1.82,2.01,4.37,2.01,7.66v15.85c0,4.25,3.45,7.7,7.7,7.7h3.29c4.25,0,7.7-3.45,7.7-7.7v-11.44c2.16-3.89,4.69-6.99,7.59-9.28,2.9-2.29,5.69-3.44,8.37-3.44s5,1.3,6.68,3.89c1.69,2.6,2.53,6.06,2.53,10.38v36.6c0,3.12-.95,5.63-2.86,7.53-1.9,1.9-4.41,2.86-7.53,2.86h-.13v1.3h39.59v-1.3h-.13Z"/>
      </g>
      <g>
        <path class="cls-1" d="M471.07,113.99c-1.9-1.9-2.86-4.41-2.86-7.53v-9.97c0-2.68-2.17-4.84-4.84-4.84h-9c-2.68,0-4.84,2.17-4.84,4.84v9.97c0,3.12-.95,5.63-2.86,7.53-1.9,1.9-4.41,2.86-7.53,2.86h-.13v1.3h39.72v-1.3h-.13c-3.12,0-5.62-.95-7.53-2.86Z"/>
        <path class="cls-1" d="M564.62,116.85c-3.12,0-5.62-.95-7.53-2.86-1.9-1.9-2.86-4.41-2.86-7.53v-35.3c0-6.23-1.75-11.25-5.26-15.06-3.5-3.81-8.16-5.71-13.95-5.71-5.11,0-9.95,1.38-14.54,4.15-4.08,2.47-7.23,5.62-9.46,9.45-.85-3.04-2.29-5.67-4.34-7.89-3.5-3.81-8.16-5.71-13.95-5.71-5.11,0-9.95,1.38-14.54,4.15-4.59,2.78-8,6.4-10.25,10.9,0-.15,0-.3-.01-.45-.39-9.43-13.16-15.39-28.93-13.4v1.91c4.33,0,7.16,.91,8.5,2.73,1.34,1.82,2.01,4.37,2.01,7.66v15.85c0,4.25,3.45,7.7,7.7,7.7h3.29c4.25,0,7.7-3.45,7.7-7.7v-11.44c2.16-3.89,4.69-6.99,7.59-9.28,2.9-2.29,5.69-3.44,8.37-3.44s5,1.3,6.68,3.89c1.69,2.6,2.53,6.06,2.53,10.38v36.6c0,3.12-.95,5.63-2.86,7.53-1.9,1.9-4.41,2.86-7.53,2.86h-.13v1.3h39.59v-1.3h-.13c-3.12,0-5.62-.95-7.53-2.86-1.9-1.9-2.86-4.41-2.86-7.53v-35.3c0-1.65-.13-3.2-.37-4.68,1.91-3.04,4.08-5.53,6.51-7.46,2.9-2.29,5.69-3.44,8.37-3.44s5,1.3,6.68,3.89c1.69,2.6,2.53,6.06,2.53,10.38v36.6c0,3.12-.95,5.63-2.86,7.53-1.9,1.9-4.41,2.86-7.53,2.86h-.13v1.3h39.59v-1.3h-.13Z"/>
      </g>
      <g>
        <path class="cls-1" d="M421.49,40.3c3.03,0,5.56-1.04,7.59-3.11,2.03-2.08,3.05-4.63,3.05-7.66s-1.02-5.58-3.05-7.66c-2.03-2.08-4.57-3.11-7.59-3.11s-5.69,1.02-7.72,3.05c-2.03,2.03-3.05,4.61-3.05,7.72s1.02,5.69,3.05,7.72c2.03,2.03,4.61,3.05,7.72,3.05Z"/>
        <path class="cls-1" d="M420.19,50.45h-8.06v62.01c0,3.14,2.55,5.69,5.69,5.69h7.21c3.14,0,5.69-2.55,5.69-5.69V60.98c0-5.82-4.72-10.53-10.53-10.53Z"/>
      </g>
      <path class="cls-1" d="M303.99,73.56c0-.27,0-.56-.01-.83"/>
      <g>
        <path class="cls-1" d="M246.94,119.83c-4.18-7.33-12.85-10.65-20.86-11.46-9.88-1.01-19.37,3.37-29.23,2.01-4.81-.67-8.36-4.4-6.41-7.77,1.06-1.84,3.34-2.56,5.38-1.95,3.29,.98,6.97,1.47,11.06,1.47,9.16,0,16.38-2.36,21.67-7.08,5.28-4.71,7.92-10.95,7.92-18.72,0-1.29-.07-2.53-.22-3.73-1.04-8.44-7.28-15.01-14.72-18.5-4.58-2.15-9.57-3.43-14.65-3.43-9.07,0-16.29,2.34-21.67,7.01-5.38,4.67-8.06,10.89-8.06,18.65,0,5.33,1.29,9.96,3.86,13.88,1.23,1.88,2.71,3.55,4.43,5.01,2.32,1.96,2.15,5.65-.35,7.37-1.31,.9-2.46,1.89-3.44,2.98-2.43,2.66-3.65,5.54-3.65,8.62,0,10.17,13.58,12.46,21.25,13.25,2.29,.23,4.79,.4,7.5,.49l4.91,.28c7.11,.09,12.39,1.03,15.85,2.8,3.27,1.87,4.91,4.39,4.91,7.57,0,2.9-1.1,5.47-3.3,7.71-2.2,2.24-5.12,4-8.76,5.26-3.65,1.26-7.62,1.89-11.92,1.89-8.01,0-17.33-3.42-17.24-13.06,.02-2.65,1.54-5.05,.09-7.58-1.29-2.25-4.06-3.83-6.58-4.16-3.54-.47-7.26,1.29-9.15,4.31-1.13,1.81-1.6,3.96-1.75,6.08-.22,3.37,.91,5.85,1.15,6.36,1.28,2.82,3.24,4.37,5.3,5.97,0,0,3.3,2.56,7.09,3.99,8.17,3.08,18.58,2.83,27.1,2.06,12.16-1.1,25.7-5.13,31.72-16.75,3.2-6.17,4.37-14.57,.79-20.84Zm-47.07-61.04c1.68-4.21,4.02-6.31,7.01-6.31s5.24,2.1,7.01,6.31c1.68,4.3,2.52,10.14,2.52,17.53s-.84,13.13-2.52,17.53c-1.87,4.39-4.25,6.59-7.15,6.59s-5.19-2.15-6.87-6.45c-1.68-4.39-2.52-10.28-2.52-17.67s.84-13.23,2.52-17.53Z"/>
        <path class="cls-1" d="M233.82,48.44c-4.23,4.17-10.17,5.51-15.51,4.05-1.4-5.35,.02-11.29,4.25-15.46,4.22-4.17,10.18-5.51,15.51-4.04,1.39,5.36-.03,11.28-4.25,15.45Z"/>
      </g>
      <g>
        <g>
          <path class="cls-1" d="M316.47,38.78c-6.3,5.63-14.83,7.12-22.31,4.67-1.61-7.7,.82-16.03,7.12-21.66,5.45-4.88,12.61-6.65,19.28-5.42,.95,1.08-5.17,8.09-7.62,10.28,2.45-2.19,10.1-7.49,11.07-6.42,.47,6.77-2.09,13.67-7.54,18.55Z"/>
          <path class="cls-1" d="M287.31,30.34c3.55,3.6,4.69,8.66,3.44,13.2-4.55,1.19-9.6-.02-13.15-3.62s-4.69-8.66-3.44-13.2c4.56-1.18,9.6,.03,13.14,3.62Z"/>
        </g>
        <path class="cls-1" d="M310.07,115.41c-.39-.85-.4-1.83-.41-2.77-.03-14.5-.05-29-.08-43.51,0-3.67-.07-7.54-1.97-10.67-1.61-2.66-4.4-4.45-7.35-5.43-3.83-1.27-8.07-1.41-12.07-1.53-5.04-.14-10.18,.01-15.15,.91-5.93,1.07-11.75,3.26-16.49,6.98-1.35,1.06-2.64,2.29-3.26,3.88-.62,1.59-.4,3.62,.91,4.72,.7,.58,1.62,.84,2.53,.86,2.21,.04,4.2-1.25,5.96-2.58,4.5-3.41,8.65-7.49,13.9-9.55,2.25-.88,4.92-1.32,6.99-.07,1.01,.61,1.77,1.57,2.3,2.62,1.11,2.18,1.25,4.83,.4,7.13-1.06,2.86-3.5,4.97-6,6.72-4.42,3.11-9.31,5.5-14.2,7.79-4.54,2.13-9.19,4.23-12.93,7.57-7.42,6.62-8.52,18.34-1.08,25.44,.65,.63,1.36,1.2,2.11,1.7-.24-.43-.47-.86-.71-1.29,.79,1.57,2.35,2.6,3.95,3.31,5.05,2.24,10.94,1.9,16.2,.21,5.26-1.69,10.02-4.62,14.71-7.52,.31,1.37,.63,2.8,.25,4.15s-1.68,2.56-3.06,2.3l.03,1.29h27.07c.02-.45,.03-.9,.05-1.36-.92,.4-2.04-.23-2.52-1.11-.03-.06-.06-.12-.09-.18Zm-21.7-12.27c-.01,2.96-.73,5.67-3.58,7.67-2.86,2-6.92,2.19-9.53-.04-1.87-1.61-3.75-3.55-4.58-5.66-2.67-6.77-2.24-18.48,6.99-24.78,1.31-.89,2.58-1.81,3.86-2.76,0,0,0,0,0,0,2-1.49,4.02-3.05,6.2-4.69,.16-.12,.32-.24,.48-.35,.07,1.13,.14,1.69,.14,2.24,0,9.46,0,18.92,0,28.38Z"/>
      </g>
      <path class="cls-1" d="M132.54,1.76c-8.84-2.55-18.48,.08-24.76,5.05-6.1,4.64-9.88,11.05-12.49,17.52-2.25,5.48-3.53,11.54-5.4,16.79-1.61,4.65-5.07,10.5-9.68,13.29-1.76,1.06-4.39,1.62-6.53,1.77-.88,.06-5.64-.19-7.41-1.11-7.97-18.43-16.39-37.26-16.39-37.26-2.39-5.1-2.69-9.08-.89-11.95,1.79-2.87,5.42-4.3,10.91-4.3h.73V0H0V1.56H.55c6.44,0,12.23,5.67,17.35,17.03l46.52,100.93h4.33l27.31-58.48c4.41-2.93,8.05-6.78,9.92-10.69,3.85-8.05,5.19-17.48,8.17-25.88,1.53-4.31,3.31-9.1,8.06-13.08,4.53-3.8,9.77-6.05,17.27-5.27l.24-.39c-1.81-1.8-4.39-3.15-7.19-3.98Zm-53.38,84.55c-1.87-5.27-6.11-15.44-10.8-26.37,.6,.88,1.3,1.75,2.15,2.48,5.2,4.53,12.28,4.51,18.84,2.07l-10.19,21.82Z"/>
    </g>
  </g>
</svg>